<svg id="visual" viewBox="0 0 960 300" width="960" height="300" xmlns="http://www.w3.org/2000/svg" xmlns:xlink="http://www.w3.org/1999/xlink" version="1.1"><rect x="0" y="0" width="960" height="300" fill="#001220"></rect><path d="M0 220L12.3 219C24.7 218 49.3 216 74 221.2C98.7 226.3 123.3 238.7 148 243.5C172.7 248.3 197.3 245.7 221.8 241C246.3 236.3 270.7 229.7 295.2 222.8C319.7 216 344.3 209 369 203.8C393.7 198.7 418.3 195.3 443 198.5C467.7 201.7 492.3 211.3 517 212.8C541.7 214.3 566.3 207.7 591 210.5C615.7 213.3 640.3 225.7 664.8 228C689.3 230.3 713.7 222.7 738.2 217.7C762.7 212.7 787.3 210.3 812 214.2C836.7 218 861.3 228 886 226.5C910.7 225 935.3 212 947.7 205.5L960 199L960 0L947.7 0C935.3 0 910.7 0 886 0C861.3 0 836.7 0 812 0C787.3 0 762.7 0 738.2 0C713.7 0 689.3 0 664.8 0C640.3 0 615.7 0 591 0C566.3 0 541.7 0 517 0C492.3 0 467.7 0 443 0C418.3 0 393.7 0 369 0C344.3 0 319.7 0 295.2 0C270.7 0 246.3 0 221.8 0C197.3 0 172.7 0 148 0C123.3 0 98.7 0 74 0C49.3 0 24.7 0 12.3 0L0 0Z" fill="#112d4e"></path><path d="M0 150L12.3 159.2C24.7 168.3 49.3 186.7 74 192.7C98.7 198.7 123.3 192.3 148 187.8C172.7 183.3 197.3 180.7 221.8 174.7C246.3 168.7 270.7 159.3 295.2 160.7C319.7 162 344.3 174 369 175.3C393.7 176.7 418.3 167.3 443 166.5C467.7 165.7 492.3 173.3 517 181C541.7 188.7 566.3 196.3 591 194.3C615.7 192.3 640.3 180.7 664.8 176C689.3 171.3 713.7 173.7 738.2 177.2C762.7 180.7 787.3 185.3 812 185.8C836.7 186.3 861.3 182.7 886 179C910.7 175.3 935.3 171.7 947.7 169.8L960 168L960 0L947.7 0C935.3 0 910.7 0 886 0C861.3 0 836.7 0 812 0C787.3 0 762.7 0 738.2 0C713.7 0 689.3 0 664.8 0C640.3 0 615.7 0 591 0C566.3 0 541.7 0 517 0C492.3 0 467.7 0 443 0C418.3 0 393.7 0 369 0C344.3 0 319.7 0 295.2 0C270.7 0 246.3 0 221.8 0C197.3 0 172.7 0 148 0C123.3 0 98.7 0 74 0C49.3 0 24.7 0 12.3 0L0 0Z" fill="#005374"></path><path d="M0 113L12.3 119.8C24.7 126.7 49.3 140.3 74 141C98.7 141.7 123.3 129.3 148 130C172.7 130.7 197.3 144.3 221.8 143.5C246.3 142.7 270.7 127.3 295.2 127.3C319.7 127.3 344.3 142.7 369 143.7C393.7 144.7 418.3 131.3 443 131.3C467.7 131.3 492.3 144.7 517 150.8C541.7 157 566.3 156 591 155C615.7 154 640.3 153 664.8 149.5C689.3 146 713.7 140 738.2 139C762.7 138 787.3 142 812 142.7C836.7 143.3 861.3 140.7 886 138.7C910.7 136.7 935.3 135.3 947.7 134.7L960 134L960 0L947.7 0C935.3 0 910.7 0 886 0C861.3 0 836.7 0 812 0C787.3 0 762.7 0 738.2 0C713.7 0 689.3 0 664.8 0C640.3 0 615.7 0 591 0C566.3 0 541.7 0 517 0C492.3 0 467.7 0 443 0C418.3 0 393.7 0 369 0C344.3 0 319.7 0 295.2 0C270.7 0 246.3 0 221.8 0C197.3 0 172.7 0 148 0C123.3 0 98.7 0 74 0C49.3 0 24.7 0 12.3 0L0 0Z" fill="#007c92"></path><path d="M0 85L12.3 82.3C24.7 79.7 49.3 74.3 74 73.5C98.7 72.7 123.3 76.3 148 77.7C172.7 79 197.3 78 221.8 77C246.3 76 270.7 75 295.2 75.7C319.7 76.3 344.3 78.7 369 85.2C393.7 91.7 418.3 102.3 443 107.3C467.7 112.3 492.3 111.7 517 104.7C541.7 97.7 566.3 84.3 591 84.5C615.7 84.7 640.3 98.3 664.8 102.5C689.3 106.7 713.7 101.3 738.2 97.2C762.7 93 787.3 90 812 87.3C836.7 84.7 861.3 82.3 886 85.3C910.7 88.3 935.3 96.7 947.7 100.8L960 105L960 0L947.7 0C935.3 0 910.7 0 886 0C861.3 0 836.7 0 812 0C787.3 0 762.7 0 738.2 0C713.7 0 689.3 0 664.8 0C640.3 0 615.7 0 591 0C566.3 0 541.7 0 517 0C492.3 0 467.7 0 443 0C418.3 0 393.7 0 369 0C344.3 0 319.7 0 295.2 0C270.7 0 246.3 0 221.8 0C197.3 0 172.7 0 148 0C123.3 0 98.7 0 74 0C49.3 0 24.7 0 12.3 0L0 0Z" fill="#00a59b"></path><path d="M0 67L12.3 63.8C24.7 60.7 49.3 54.3 74 51.2C98.7 48 123.3 48 148 46.5C172.7 45 197.3 42 221.8 45.2C246.3 48.3 270.7 57.7 295.2 59.3C319.7 61 344.3 55 369 50.3C393.7 45.7 418.3 42.3 443 43.8C467.7 45.3 492.3 51.7 517 56.5C541.7 61.3 566.3 64.7 591 65.8C615.7 67 640.3 66 664.8 59.8C689.3 53.7 713.7 42.3 738.2 38.2C762.7 34 787.3 37 812 37.8C836.7 38.7 861.3 37.3 886 41.2C910.7 45 935.3 54 947.7 58.5L960 63L960 0L947.7 0C935.3 0 910.7 0 886 0C861.3 0 836.7 0 812 0C787.3 0 762.7 0 738.2 0C713.7 0 689.3 0 664.8 0C640.3 0 615.7 0 591 0C566.3 0 541.7 0 517 0C492.3 0 467.7 0 443 0C418.3 0 393.7 0 369 0C344.3 0 319.7 0 295.2 0C270.7 0 246.3 0 221.8 0C197.3 0 172.7 0 148 0C123.3 0 98.7 0 74 0C49.3 0 24.7 0 12.3 0L0 0Z" fill="#39c97b"></path></svg>