<svg id="visual" viewBox="0 0 1920 1080" width="1920" height="1080" xmlns="http://www.w3.org/2000/svg" xmlns:xlink="http://www.w3.org/1999/xlink" version="1.1"><rect x="0" y="0" width="1920" height="1080" fill="#001220"></rect><path d="M0 785L45.7 771.7C91.3 758.3 182.7 731.7 274.2 745.3C365.7 759 457.3 813 548.8 819.5C640.3 826 731.7 785 823 785.3C914.3 785.7 1005.7 827.3 1097 819.5C1188.3 811.7 1279.7 754.3 1371.2 749.7C1462.7 745 1554.3 793 1645.8 811C1737.3 829 1828.7 817 1874.3 811L1920 805L1920 1081L1874.3 1081C1828.7 1081 1737.3 1081 1645.8 1081C1554.3 1081 1462.7 1081 1371.2 1081C1279.7 1081 1188.3 1081 1097 1081C1005.7 1081 914.3 1081 823 1081C731.7 1081 640.3 1081 548.8 1081C457.3 1081 365.7 1081 274.2 1081C182.7 1081 91.3 1081 45.7 1081L0 1081Z" fill="#39c97b" stroke-linecap="round" stroke-linejoin="miter"></path></svg>