<svg id="visual" viewBox="0 0 900 100" width="900" height="100" xmlns="http://www.w3.org/2000/svg" xmlns:xlink="http://www.w3.org/1999/xlink" version="1.1"><rect x="0" y="0" width="900" height="100" fill="#FFF"></rect><path d="M0 31L9.3 32.8C18.7 34.7 37.3 38.3 56.2 37C75 35.7 94 29.3 112.8 25.2C131.7 21 150.3 19 169 18.3C187.7 17.7 206.3 18.3 225 21.2C243.7 24 262.3 29 281.2 28.7C300 28.3 319 22.7 337.8 22.7C356.7 22.7 375.3 28.3 394 25.8C412.7 23.3 431.3 12.7 450 13.7C468.7 14.7 487.3 27.3 506.2 30.5C525 33.7 544 27.3 562.8 26C581.7 24.7 600.3 28.3 619 27.5C637.7 26.7 656.3 21.3 675 23C693.7 24.7 712.3 33.3 731.2 33.3C750 33.3 769 24.7 787.8 23.2C806.7 21.7 825.3 27.3 844 29.3C862.7 31.3 881.3 29.7 890.7 28.8L900 28L900 101L890.7 101C881.3 101 862.7 101 844 101C825.3 101 806.7 101 787.8 101C769 101 750 101 731.2 101C712.3 101 693.7 101 675 101C656.3 101 637.7 101 619 101C600.3 101 581.7 101 562.8 101C544 101 525 101 506.2 101C487.3 101 468.7 101 450 101C431.3 101 412.7 101 394 101C375.3 101 356.7 101 337.8 101C319 101 300 101 281.2 101C262.3 101 243.7 101 225 101C206.3 101 187.7 101 169 101C150.3 101 131.7 101 112.8 101C94 101 75 101 56.2 101C37.3 101 18.7 101 9.3 101L0 101Z" fill="#64768d"></path><path d="M0 61L9.3 60.7C18.7 60.3 37.3 59.7 56.2 58.5C75 57.3 94 55.7 112.8 50.2C131.7 44.7 150.3 35.3 169 35.8C187.7 36.3 206.3 46.7 225 48.2C243.7 49.7 262.3 42.3 281.2 38.3C300 34.3 319 33.7 337.8 37C356.7 40.3 375.3 47.7 394 50.7C412.7 53.7 431.3 52.3 450 47.8C468.7 43.3 487.3 35.7 506.2 36.5C525 37.3 544 46.7 562.8 51.7C581.7 56.7 600.3 57.3 619 54.5C637.7 51.7 656.3 45.3 675 45C693.7 44.7 712.3 50.3 731.2 48.5C750 46.7 769 37.3 787.8 36.3C806.7 35.3 825.3 42.7 844 47C862.7 51.3 881.3 52.7 890.7 53.3L900 54L900 101L890.7 101C881.3 101 862.7 101 844 101C825.3 101 806.7 101 787.8 101C769 101 750 101 731.2 101C712.3 101 693.7 101 675 101C656.3 101 637.7 101 619 101C600.3 101 581.7 101 562.8 101C544 101 525 101 506.2 101C487.3 101 468.7 101 450 101C431.3 101 412.7 101 394 101C375.3 101 356.7 101 337.8 101C319 101 300 101 281.2 101C262.3 101 243.7 101 225 101C206.3 101 187.7 101 169 101C150.3 101 131.7 101 112.8 101C94 101 75 101 56.2 101C37.3 101 18.7 101 9.3 101L0 101Z" fill="#415266"></path><path d="M0 67L9.3 68.8C18.7 70.7 37.3 74.3 56.2 75C75 75.7 94 73.3 112.8 71.2C131.7 69 150.3 67 169 67.8C187.7 68.7 206.3 72.3 225 74C243.7 75.7 262.3 75.3 281.2 71.7C300 68 319 61 337.8 59.3C356.7 57.7 375.3 61.3 394 65.3C412.7 69.3 431.3 73.7 450 75.3C468.7 77 487.3 76 506.2 75C525 74 544 73 562.8 68.8C581.7 64.7 600.3 57.3 619 52.7C637.7 48 656.3 46 675 48.8C693.7 51.7 712.3 59.3 731.2 59.2C750 59 769 51 787.8 49.5C806.7 48 825.3 53 844 54.5C862.7 56 881.3 54 890.7 53L900 52L900 101L890.7 101C881.3 101 862.7 101 844 101C825.3 101 806.7 101 787.8 101C769 101 750 101 731.2 101C712.3 101 693.7 101 675 101C656.3 101 637.7 101 619 101C600.3 101 581.7 101 562.8 101C544 101 525 101 506.2 101C487.3 101 468.7 101 450 101C431.3 101 412.7 101 394 101C375.3 101 356.7 101 337.8 101C319 101 300 101 281.2 101C262.3 101 243.7 101 225 101C206.3 101 187.7 101 169 101C150.3 101 131.7 101 112.8 101C94 101 75 101 56.2 101C37.3 101 18.7 101 9.3 101L0 101Z" fill="#213141"></path><path d="M0 86L9.3 84C18.7 82 37.3 78 56.2 74C75 70 94 66 112.8 67.8C131.7 69.7 150.3 77.3 169 81.8C187.7 86.3 206.3 87.7 225 88.5C243.7 89.3 262.3 89.7 281.2 87.3C300 85 319 80 337.8 79.2C356.7 78.3 375.3 81.7 394 82.2C412.7 82.7 431.3 80.3 450 76.5C468.7 72.7 487.3 67.3 506.2 67.3C525 67.3 544 72.7 562.8 75.7C581.7 78.7 600.3 79.3 619 78.8C637.7 78.3 656.3 76.7 675 76C693.7 75.3 712.3 75.7 731.2 74.8C750 74 769 72 787.8 71.8C806.7 71.7 825.3 73.3 844 72.8C862.7 72.3 881.3 69.7 890.7 68.3L900 67L900 101L890.7 101C881.3 101 862.7 101 844 101C825.3 101 806.7 101 787.8 101C769 101 750 101 731.2 101C712.3 101 693.7 101 675 101C656.3 101 637.7 101 619 101C600.3 101 581.7 101 562.8 101C544 101 525 101 506.2 101C487.3 101 468.7 101 450 101C431.3 101 412.7 101 394 101C375.3 101 356.7 101 337.8 101C319 101 300 101 281.2 101C262.3 101 243.7 101 225 101C206.3 101 187.7 101 169 101C150.3 101 131.7 101 112.8 101C94 101 75 101 56.2 101C37.3 101 18.7 101 9.3 101L0 101Z" fill="#001220"></path></svg>