<svg id="visual" viewBox="0 0 900 300" width="900" height="300" xmlns="http://www.w3.org/2000/svg" xmlns:xlink="http://www.w3.org/1999/xlink" version="1.1"><rect x="0" y="0" width="900" height="300" fill="#FFF"></rect><path d="M0 191L21.5 180.2C43 169.3 86 147.7 128.8 145.3C171.7 143 214.3 160 257.2 168.8C300 177.7 343 178.3 385.8 181C428.7 183.7 471.3 188.3 514.2 188.7C557 189 600 185 642.8 184.5C685.7 184 728.3 187 771.2 181.2C814 175.3 857 160.7 878.5 153.3L900 146L900 301L878.5 301C857 301 814 301 771.2 301C728.3 301 685.7 301 642.8 301C600 301 557 301 514.2 301C471.3 301 428.7 301 385.8 301C343 301 300 301 257.2 301C214.3 301 171.7 301 128.8 301C86 301 43 301 21.5 301L0 301Z" fill="#64768d"></path><path d="M0 189L21.5 192C43 195 86 201 128.8 204.8C171.7 208.7 214.3 210.3 257.2 203.2C300 196 343 180 385.8 171.3C428.7 162.7 471.3 161.3 514.2 169.8C557 178.3 600 196.7 642.8 201.5C685.7 206.3 728.3 197.7 771.2 189.3C814 181 857 173 878.5 169L900 165L900 301L878.5 301C857 301 814 301 771.2 301C728.3 301 685.7 301 642.8 301C600 301 557 301 514.2 301C471.3 301 428.7 301 385.8 301C343 301 300 301 257.2 301C214.3 301 171.7 301 128.8 301C86 301 43 301 21.5 301L0 301Z" fill="#4a5b6f"></path><path d="M0 204L21.5 209.3C43 214.7 86 225.3 128.8 225.3C171.7 225.3 214.3 214.7 257.2 208.5C300 202.3 343 200.7 385.8 198.7C428.7 196.7 471.3 194.3 514.2 198.7C557 203 600 214 642.8 217C685.7 220 728.3 215 771.2 211C814 207 857 204 878.5 202.5L900 201L900 301L878.5 301C857 301 814 301 771.2 301C728.3 301 685.7 301 642.8 301C600 301 557 301 514.2 301C471.3 301 428.7 301 385.8 301C343 301 300 301 257.2 301C214.3 301 171.7 301 128.8 301C86 301 43 301 21.5 301L0 301Z" fill="#314153"></path><path d="M0 219L21.5 218.8C43 218.7 86 218.3 128.8 219.2C171.7 220 214.3 222 257.2 226.3C300 230.7 343 237.3 385.8 241.8C428.7 246.3 471.3 248.7 514.2 245.3C557 242 600 233 642.8 230.8C685.7 228.7 728.3 233.3 771.2 232.5C814 231.7 857 225.3 878.5 222.2L900 219L900 301L878.5 301C857 301 814 301 771.2 301C728.3 301 685.7 301 642.8 301C600 301 557 301 514.2 301C471.3 301 428.7 301 385.8 301C343 301 300 301 257.2 301C214.3 301 171.7 301 128.8 301C86 301 43 301 21.5 301L0 301Z" fill="#192939"></path><path d="M0 276L21.5 274.3C43 272.7 86 269.3 128.8 266C171.7 262.7 214.3 259.3 257.2 258C300 256.7 343 257.3 385.8 257.7C428.7 258 471.3 258 514.2 261.5C557 265 600 272 642.8 271.5C685.7 271 728.3 263 771.2 259.7C814 256.3 857 257.7 878.5 258.3L900 259L900 301L878.5 301C857 301 814 301 771.2 301C728.3 301 685.7 301 642.8 301C600 301 557 301 514.2 301C471.3 301 428.7 301 385.8 301C343 301 300 301 257.2 301C214.3 301 171.7 301 128.8 301C86 301 43 301 21.5 301L0 301Z" fill="#001220"></path></svg>