<svg id="visual" viewBox="0 0 900 100" width="900" height="100" xmlns="http://www.w3.org/2000/svg" xmlns:xlink="http://www.w3.org/1999/xlink" version="1.1"><rect x="0" y="0" width="900" height="100" fill="#FFF"></rect><path d="M0 39L10 34C20 29 40 19 60 14.3C80 9.7 100 10.3 120 12.2C140 14 160 17 180 19C200 21 220 22 240 20.2C260 18.3 280 13.7 300 13.2C320 12.7 340 16.3 360 19.2C380 22 400 24 420 22.7C440 21.3 460 16.7 480 17.5C500 18.3 520 24.7 540 25.8C560 27 580 23 600 20.2C620 17.3 640 15.7 660 15.7C680 15.7 700 17.3 720 18.3C740 19.3 760 19.7 780 17.7C800 15.7 820 11.3 840 11.5C860 11.7 880 16.3 890 18.7L900 21L900 101L890 101C880 101 860 101 840 101C820 101 800 101 780 101C760 101 740 101 720 101C700 101 680 101 660 101C640 101 620 101 600 101C580 101 560 101 540 101C520 101 500 101 480 101C460 101 440 101 420 101C400 101 380 101 360 101C340 101 320 101 300 101C280 101 260 101 240 101C220 101 200 101 180 101C160 101 140 101 120 101C100 101 80 101 60 101C40 101 20 101 10 101L0 101Z" fill="#64768d"></path><path d="M0 25L10 28.2C20 31.3 40 37.7 60 40.3C80 43 100 42 120 44.2C140 46.3 160 51.7 180 53.3C200 55 220 53 240 51C260 49 280 47 300 47.2C320 47.3 340 49.7 360 50.5C380 51.3 400 50.7 420 46.7C440 42.7 460 35.3 480 34.3C500 33.3 520 38.7 540 41.7C560 44.7 580 45.3 600 46C620 46.7 640 47.3 660 47.8C680 48.3 700 48.7 720 44.5C740 40.3 760 31.7 780 31.5C800 31.3 820 39.7 840 43.7C860 47.7 880 47.3 890 47.2L900 47L900 101L890 101C880 101 860 101 840 101C820 101 800 101 780 101C760 101 740 101 720 101C700 101 680 101 660 101C640 101 620 101 600 101C580 101 560 101 540 101C520 101 500 101 480 101C460 101 440 101 420 101C400 101 380 101 360 101C340 101 320 101 300 101C280 101 260 101 240 101C220 101 200 101 180 101C160 101 140 101 120 101C100 101 80 101 60 101C40 101 20 101 10 101L0 101Z" fill="#415266"></path><path d="M0 57L10 60C20 63 40 69 60 68.3C80 67.7 100 60.3 120 58.3C140 56.3 160 59.7 180 62.7C200 65.7 220 68.3 240 66.7C260 65 280 59 300 56.7C320 54.3 340 55.7 360 58.2C380 60.7 400 64.3 420 62.5C440 60.7 460 53.3 480 49.7C500 46 520 46 540 49.7C560 53.3 580 60.7 600 65.3C620 70 640 72 660 71.2C680 70.3 700 66.7 720 66.3C740 66 760 69 780 68.8C800 68.7 820 65.3 840 65.8C860 66.3 880 70.7 890 72.8L900 75L900 101L890 101C880 101 860 101 840 101C820 101 800 101 780 101C760 101 740 101 720 101C700 101 680 101 660 101C640 101 620 101 600 101C580 101 560 101 540 101C520 101 500 101 480 101C460 101 440 101 420 101C400 101 380 101 360 101C340 101 320 101 300 101C280 101 260 101 240 101C220 101 200 101 180 101C160 101 140 101 120 101C100 101 80 101 60 101C40 101 20 101 10 101L0 101Z" fill="#213141"></path><path d="M0 90L10 87.5C20 85 40 80 60 78.7C80 77.3 100 79.7 120 79.2C140 78.7 160 75.3 180 72.5C200 69.7 220 67.3 240 68.2C260 69 280 73 300 77.8C320 82.7 340 88.3 360 90.2C380 92 400 90 420 86.2C440 82.3 460 76.7 480 73C500 69.3 520 67.7 540 69.3C560 71 580 76 600 80.3C620 84.7 640 88.3 660 88.5C680 88.7 700 85.3 720 82C740 78.7 760 75.3 780 77C800 78.7 820 85.3 840 84.3C860 83.3 880 74.7 890 70.3L900 66L900 101L890 101C880 101 860 101 840 101C820 101 800 101 780 101C760 101 740 101 720 101C700 101 680 101 660 101C640 101 620 101 600 101C580 101 560 101 540 101C520 101 500 101 480 101C460 101 440 101 420 101C400 101 380 101 360 101C340 101 320 101 300 101C280 101 260 101 240 101C220 101 200 101 180 101C160 101 140 101 120 101C100 101 80 101 60 101C40 101 20 101 10 101L0 101Z" fill="#001220"></path></svg>