<svg id="visual" viewBox="0 0 960 300" width="960" height="300" xmlns="http://www.w3.org/2000/svg" xmlns:xlink="http://www.w3.org/1999/xlink" version="1.1"><rect x="0" y="0" width="960" height="300" fill="#001220"></rect><path d="M0 133L22.8 145.8C45.7 158.7 91.3 184.3 137 183C182.7 181.7 228.3 153.3 274 139.3C319.7 125.3 365.3 125.7 411.2 139.7C457 153.7 503 181.3 548.8 199.2C594.7 217 640.3 225 686 213.5C731.7 202 777.3 171 823 164.3C868.7 157.7 914.3 175.3 937.2 184.2L960 193L960 301L937.2 301C914.3 301 868.7 301 823 301C777.3 301 731.7 301 686 301C640.3 301 594.7 301 548.8 301C503 301 457 301 411.2 301C365.3 301 319.7 301 274 301C228.3 301 182.7 301 137 301C91.3 301 45.7 301 22.8 301L0 301Z" fill="#39c97b" stroke-linecap="round" stroke-linejoin="miter"></path></svg>